<svg width="40" height="40" viewBox="0 0 40 40" fill="none" xmlns="http://www.w3.org/2000/svg">
    <path d="M18.9363 31.9792V32.6839H18.9034V32.7097H18.1987H9.13415H8.27162L8.44356 31.8645C8.47456 31.7126 8.50721 31.5651 8.5408 31.4262C8.57252 31.2921 8.60822 31.154 8.64627 31.0194L8.66765 30.9456L8.68879 30.8733C8.72003 30.7662 8.74963 30.6675 8.78181 30.5661L8.78251 30.5637L8.7858 30.5538C8.81281 30.4709 8.83983 30.388 8.87107 30.3049C8.90137 30.213 8.9359 30.119 8.97043 30.0274C9.01271 29.9126 9.05945 29.7921 9.10596 29.6739C9.14707 29.5727 9.18982 29.4743 9.23774 29.3697C9.25442 29.327 9.27344 29.2849 9.29482 29.2429C9.33827 29.1442 9.38032 29.054 9.42284 28.9688C9.44092 28.9305 9.45877 28.8945 9.47686 28.8584C9.52055 28.7686 9.5687 28.6754 9.61686 28.588C9.6333 28.5547 9.65467 28.5135 9.68239 28.4673C9.68356 28.4656 9.68451 28.4635 9.68568 28.4616L9.69061 28.4515L9.69719 28.4393C9.76014 28.3223 9.81863 28.219 9.87618 28.1236C9.93138 28.0294 9.98987 27.9303 10.0535 27.8312L10.0765 27.7955C10.0942 27.7666 10.1125 27.7382 10.131 27.7095L10.1557 27.671C10.2184 27.5707 10.288 27.4666 10.3591 27.3663C10.4369 27.2543 10.5196 27.1352 10.6126 27.0135C10.6732 26.9282 10.7394 26.8413 10.8266 26.7335L10.8327 26.7255L10.8393 26.718L10.8569 26.6971C10.8822 26.6628 10.91 26.6285 10.9367 26.5966C11.007 26.5106 11.0788 26.4227 11.1573 26.3333C11.1749 26.3109 11.1907 26.294 11.2015 26.2825C11.279 26.1911 11.3572 26.104 11.4396 26.0166C11.4627 25.9908 11.488 25.9635 11.5134 25.9375C11.5949 25.8477 11.6839 25.7549 11.8002 25.6389C12.6813 24.7576 13.6702 24.0273 14.7521 23.4572H9.46629C8.08276 24.8586 6.99332 26.4826 6.22639 28.2876C5.41882 30.1923 5.00681 32.2167 5.00235 34.3039L5 35.6684V35.9019H22.0581V22.7525V22.0478H22.0604V21.6532L22.0581 19.5119V9.13567V8.43099H22.098L22.8027 8.42393H32.7296L32.5579 9.26886C32.0787 11.6277 30.9178 13.7807 29.2012 15.495C28.8383 15.8567 28.4568 16.1936 28.0582 16.5043H32.5783C33.4777 15.3914 34.216 14.1617 34.7748 12.8442C35.5809 10.9401 35.9923 8.9165 35.9967 6.82993L36 5.22937H18.9363V31.9792Z" fill="#A3A3A3"/>
    <path d="M8.19457 18.8518V18.1471V9.12029V8.26152L9.0369 8.429C11.4107 8.90137 13.576 10.0613 15.298 11.7835C15.4159 11.9012 15.5317 12.0219 15.6454 12.1453V7.90189C14.7096 7.22845 13.7 6.66094 12.6395 6.213C10.7361 5.40825 8.71134 5 6.62077 5H5V21.1067H15.6454V18.8518H8.89925H8.19457Z" fill="#A3A3A3"/>
    <path d="M32.5123 21.0757V32.6048L31.6709 32.4382C29.3015 31.9699 27.1363 30.8109 25.4091 29.0863C25.3729 29.0501 25.3365 29.0135 25.301 28.9768V33.1375C26.1636 33.7337 27.0926 34.2432 28.0669 34.6538C29.9745 35.4606 31.9993 35.8693 34.0861 35.8693H35.7045V18.8207H25.301V21.0757H32.5123Z" fill="#A3A3A3"/>
    </svg>
