<svg width="30" height="30" viewBox="0 0 30 30" fill="none" xmlns="http://www.w3.org/2000/svg">
<path d="M9.90108 23.4981L12.027 24.8751L14.6258 23.1925L12.4998 21.8155V1.60259L10.0289 0L9.81202 0.140232L0 6.49774V9.8649L9.90108 3.44775V23.4981Z" fill="#A3A3A3"/>
<path d="M17.461 1.6024V22.8127L10.0291 27.6295L2.59716 22.8127V9.64029L0 11.3229V23.4979L10.0291 29.9974L20.0579 23.4979V3.44755L29.9606 9.8647V6.49754L19.9317 0L17.461 1.6024Z" fill="#A3A3A3"/>
<path d="M18.7429 25.8368L16.1442 27.5214L19.9712 30L30.0001 23.5005V11.3255L27.4013 9.6427V21.8179L19.971 26.6347L18.7429 25.8368Z" fill="#A3A3A3"/>
</svg>
