<svg width="57" height="40" viewBox="0 0 57 40" fill="none" xmlns="http://www.w3.org/2000/svg">
    <path d="M6.53907 2.14721H50.1446C51.1208 2.14721 51.9606 2.81118 52.3333 3.7575H4.35037C4.71777 2.81118 5.55757 2.14721 6.53907 2.14721ZM3.07499 31.159C3.66808 31.159 4.15092 30.6782 4.15092 30.0856V5.9047H52.5327V30.2284C52.5327 30.8215 53.0156 31.3017 53.6087 31.3017C54.2018 31.3017 54.6794 30.8215 54.6794 30.2284V4.83136C54.6794 2.16716 52.6482 0 50.1446 0H6.53907C4.03547 0 1.999 2.16716 1.999 4.83136V30.0856C1.999 30.6782 2.4819 31.159 3.07499 31.159Z" fill="#EF7F3C"/>
    <path d="M50.6125 37.6239H6.38759C4.40886 37.6239 2.74501 36.266 2.27788 34.4017H36.3205V35.4861C36.3205 36.0792 36.8033 36.56 37.3964 36.56C37.9895 36.56 38.4672 36.0792 38.4672 35.4861V34.4017H40.1677V35.4861C40.1677 36.0792 40.6505 36.56 41.2436 36.56C41.8367 36.56 42.3144 36.0792 42.3144 35.4861V34.4017H44.0149V35.4861C44.0149 36.0792 44.4978 36.56 45.0909 36.56C45.684 36.56 46.1617 36.0792 46.1617 35.4861V34.4017H47.8622V35.4861C47.8622 36.0792 48.345 36.56 48.9381 36.56C49.5312 36.56 50.0089 36.0792 50.0089 35.4861V34.4017H54.7274C54.2707 36.2498 52.6017 37.6239 50.6125 37.6239ZM55.9293 32.2545H1.07074C0.477645 32.2545 0 32.7888 0 33.3819C0 36.9048 2.86577 39.7711 6.38759 39.7711H50.6125C54.1343 39.7711 57 36.9048 57 33.3279C57 32.7348 56.5172 32.2545 55.9293 32.2545Z" fill="#EF7F3C"/>
    <path d="M30.4871 18.9406C30.4871 19.3137 30.1827 19.6171 29.81 19.6171C29.4374 19.6171 29.1329 19.3137 29.1329 18.9406C29.1329 18.5674 29.4374 18.264 29.81 18.264C30.1827 18.264 30.4871 18.5674 30.4871 18.9406ZM26.9863 18.9406C26.9863 20.4978 28.2512 21.7643 29.81 21.7643C31.3689 21.7643 32.6338 20.4978 32.6338 18.9406C32.6338 17.3838 31.3689 16.1168 29.81 16.1168C28.2512 16.1168 26.9863 17.3838 26.9863 18.9406Z" fill="#EF7F3C"/>
    <path d="M23.1576 18.9406C23.1576 19.3137 22.8531 19.6171 22.4805 19.6171C22.1078 19.6171 21.8034 19.3137 21.8034 18.9406C21.8034 18.5674 22.1078 18.264 22.4805 18.264C22.8531 18.264 23.1576 18.5674 23.1576 18.9406ZM19.6567 18.9406C19.6567 20.4978 20.9217 21.7643 22.4805 21.7643C24.0341 21.7643 25.3043 20.4978 25.3043 18.9406C25.3043 17.3838 24.0341 16.1168 22.4805 16.1168C20.9217 16.1168 19.6567 17.3838 19.6567 18.9406Z" fill="#EF7F3C"/>
    <path d="M37.4838 18.9406C37.4838 19.3137 37.1793 19.6171 36.8067 19.6171C36.434 19.6171 36.1296 19.3137 36.1296 18.9406C36.1296 18.5674 36.434 18.264 36.8067 18.264C37.1793 18.264 37.4838 18.5674 37.4838 18.9406ZM33.9829 18.9406C33.9829 20.4978 35.2478 21.7643 36.8067 21.7643C38.3655 21.7643 39.6304 20.4978 39.6304 18.9406C39.6304 17.3838 38.3655 16.1168 36.8067 16.1168C35.2478 16.1168 33.9829 17.3838 33.9829 18.9406Z" fill="#EF7F3C"/>
    </svg>
