<svg width="43" height="48" viewBox="0 0 43 48" fill="none" xmlns="http://www.w3.org/2000/svg">
    <path d="M41.4343 18.4068C41.4343 16.9826 41.0176 15.6709 40.3207 14.6267V5.73685C41.3484 5.37087 42.0985 4.25197 42.0985 2.93174C42.0985 1.31512 40.9741 0 39.5921 0C38.21 0 37.0857 1.31512 37.0857 2.93174C37.0857 4.25197 37.8358 5.37077 38.8635 5.73685V13.1195C38.0751 12.5681 37.1542 12.2502 36.1707 12.2502C35.223 12.2502 34.334 12.5461 33.5651 13.0608V5.73685C34.5928 5.37087 35.3429 4.25197 35.3429 2.93174C35.3429 1.31512 34.2185 0 32.8365 0C31.4544 0 30.3301 1.31512 30.3301 2.93174C30.3301 4.25197 31.0801 5.37077 32.1078 5.73685V14.497C31.358 15.561 30.9071 16.9235 30.9071 18.4068V26.9818C30.0748 24.831 28.8988 22.8502 27.411 21.1307C24.2276 17.4517 20.0194 15.4256 15.5615 15.4256C11.9618 15.4256 8.57762 17.0652 6.03221 20.0425C3.48688 23.0198 2.08507 26.9784 2.08507 31.1888C2.08507 35.4727 3.89637 39.2708 6.67006 41.5912L0.790078 46.4517C0.530856 46.6659 0.420018 47.0518 0.516112 47.4057C0.612206 47.7596 0.893115 48 1.21054 48H31.3885C34.5757 48 37.0868 46.9425 38.8521 44.8568C41.4409 41.7982 41.4357 37.669 41.4342 37.5031L41.4343 18.4068ZM38.543 2.93174C38.543 2.25503 39.0137 1.70456 39.5921 1.70456C40.1706 1.70456 40.6412 2.25503 40.6412 2.93174C40.6412 3.60845 40.1706 4.15892 39.5921 4.15892C39.0137 4.15902 38.543 3.60845 38.543 2.93174ZM31.7874 2.93174C31.7874 2.25503 32.258 1.70456 32.8366 1.70456C33.415 1.70456 33.8857 2.25503 33.8857 2.93174C33.8857 3.60845 33.415 4.15892 32.8366 4.15892C32.258 4.15902 31.7874 3.60845 31.7874 2.93174ZM3.54251 31.1888C3.54251 27.4336 4.79267 23.9031 7.06284 21.2477C9.33291 18.5925 12.3513 17.1301 15.5617 17.1301C23.8415 17.1301 30.6107 24.7692 30.8978 34.2864L21.166 37.7096C21.6377 36.4416 21.8994 35.0432 21.8994 33.5746C21.8994 28.895 18.6447 25.0879 14.644 25.0879C13.0546 25.0879 11.5604 25.8118 10.4366 27.1264C9.31277 28.4409 8.69386 30.1887 8.69386 32.0476C8.69386 35.2119 10.8946 37.7861 13.5996 37.7861C15.8441 37.786 17.67 35.6501 17.67 33.0249C17.67 30.8306 16.1438 29.0454 14.268 29.0454C13.5021 29.0454 12.782 29.3942 12.2404 30.0278C11.6988 30.6613 11.4005 31.5037 11.4006 32.3994C11.4006 33.9728 12.495 35.253 13.8401 35.253C14.2424 35.253 14.5687 34.8714 14.5687 34.4007C14.5687 33.9301 14.2424 33.5484 13.8401 33.5484C13.2985 33.5484 12.8579 33.033 12.8579 32.3993C12.8578 31.9588 13.0045 31.5447 13.2708 31.233C13.5372 30.9215 13.8913 30.75 14.268 30.75C15.3404 30.75 16.2128 31.7705 16.2128 33.0249C16.2128 34.7104 15.0404 36.0814 13.5995 36.0815C11.6981 36.0815 10.151 34.2719 10.151 32.0476C10.151 30.6439 10.6183 29.3242 11.467 28.3316C12.3155 27.3391 13.4438 26.7924 14.6439 26.7924C17.841 26.7924 20.4421 29.8348 20.4421 33.5745C20.4421 38.3667 17.1091 42.2655 13.0121 42.2655C7.79053 42.2655 3.54251 37.2965 3.54251 31.1888ZM37.805 43.6711C36.3238 45.4124 34.165 46.2953 31.3885 46.2953H3.50419L7.91851 42.6465C7.95314 42.6179 7.98434 42.5858 8.01323 42.5519C9.51207 43.4578 11.2118 43.9701 13.0121 43.9701C15.8945 43.9701 18.4611 42.3564 20.0858 39.8611C20.1186 39.8551 20.1513 39.8464 20.1839 39.835L31.8456 35.733C32.1536 35.6247 32.3644 35.293 32.3644 34.9168V18.4068C32.3644 15.952 34.0719 13.9547 36.1707 13.9547C38.2695 13.9547 39.977 15.952 39.977 18.4068L39.9771 37.5095C39.9772 37.5453 39.9676 41.1288 37.805 43.6711Z" fill="#EF7F3C" />
</svg>
