<svg width="49" height="55" viewBox="0 0 49 55" fill="none" xmlns="http://www.w3.org/2000/svg">
    <path d="M16.0349 30.8097C16.9372 30.9076 17.5887 31.7183 17.4908 32.6202C17.4418 33.0712 17.7678 33.4766 18.2188 33.5255C18.6697 33.5745 19.0751 33.2485 19.1241 32.7976C19.2797 31.312 18.4138 29.9084 17.0162 29.3811L17.1175 28.4484C17.1664 27.9974 16.8405 27.5921 16.3895 27.5431C15.9385 27.4942 15.5332 27.8201 15.4842 28.2711L15.383 29.2038C13.7475 29.4405 12.5439 30.8571 12.5743 32.5093C12.6048 34.1615 13.8598 35.5331 15.5029 35.7094C16.4052 35.8074 17.0567 36.6181 16.9588 37.52C16.8609 38.422 16.0506 39.0739 15.1482 38.976C14.2463 38.878 13.5944 38.0673 13.6923 37.1654C13.7413 36.7144 13.4153 36.309 12.9643 36.2601C12.5133 36.2111 12.108 36.5371 12.059 36.9881C11.9034 38.4736 12.7697 39.8772 14.1669 40.4045L14.0656 41.3372C14.0166 41.7882 14.3426 42.1935 14.7936 42.2425C15.2446 42.2915 15.6499 41.9655 15.6989 41.5145L15.7999 40.5843C17.4401 40.352 18.6491 38.9333 18.6187 37.2774C18.5883 35.6212 17.3278 34.2478 15.6802 34.0762C14.7782 33.9783 14.1263 33.1676 14.2243 32.2656C14.3222 31.3636 15.1329 30.7117 16.0349 30.8097Z" fill="#EF7F3C" />
    <path d="M19.3713 22.9093L14.4715 22.3774C14.0206 22.3284 13.6152 22.6543 13.5662 23.1053C13.5173 23.5563 13.8432 23.9617 14.2942 24.0106L19.194 24.5426C19.645 24.5916 20.0503 24.2656 20.0993 23.8146C20.1483 23.3636 19.8223 22.9583 19.3713 22.9093Z" fill="#EF7F3C" />
    <path d="M16.8888 45.7749L11.9891 45.243C11.5381 45.194 11.1327 45.5199 11.0838 45.9709C11.0348 46.4219 11.3607 46.8273 11.8117 46.8762L16.7115 47.4082C17.1625 47.4572 17.5678 47.1312 17.6168 46.6802C17.6658 46.2292 17.3398 45.8239 16.8888 45.7749Z" fill="#EF7F3C" />
    <path d="M44.1378 36.7527L34.4033 14.6879C35.2205 14.0363 35.9615 13.2941 36.6116 12.4755C38.2123 10.4183 38.6828 8.35165 37.9355 6.65795C36.4485 3.28629 30.6616 2.68381 24.761 5.28608C23.9769 5.63787 23.216 6.039 22.4827 6.48709L21.9048 5.66748C21.2155 4.69215 20.1409 4.05906 18.9535 3.92934C17.7663 3.80126 16.5809 4.18896 15.6983 4.99363L5.67241 14.1409C4.92283 14.8245 4.44862 15.7586 4.33949 16.7675L1.55034 42.4571C1.11462 46.5149 4.04529 50.1599 8.10206 50.6047L19.5349 51.846C23.5926 52.2821 27.2377 49.3511 27.6825 45.2943L30.4717 19.6047C30.5555 18.8178 30.4122 18.0232 30.0595 17.3148L30.0659 17.3155C31.1037 16.8569 32.1006 16.3111 33.0457 15.6843L42.6347 37.4157C43.9177 40.3215 42.6018 43.7168 39.6954 44.9989L29.1739 49.6404C28.7114 49.8419 28.2238 49.9814 27.7245 50.0547C27.2761 50.1234 26.9679 50.5426 27.0366 50.991C27.1049 51.4394 27.5241 51.7476 27.973 51.6789C28.6136 51.5826 29.2391 51.4024 29.8329 51.1429L40.3544 46.5015C44.092 44.8549 45.7864 40.4896 44.1378 36.7527ZM26.0493 45.117C25.7031 48.2723 22.8683 50.5518 19.7122 50.2128L8.27938 48.9715C5.12449 48.6253 2.84457 45.7905 3.1836 42.6344L5.97276 16.9448C6.03908 16.3339 6.32601 15.7684 6.78008 15.3541L16.8058 6.20803C17.3397 5.72013 18.0572 5.48495 18.7761 5.5626C19.495 5.64106 20.1457 6.02478 20.5624 6.61588L27.547 16.5066C25.6331 17.1678 23.5954 17.3932 21.5835 17.1663C21.6428 16.9658 21.6864 16.7607 21.7141 16.5535C21.9565 14.2992 20.3281 12.2746 18.0743 12.0271C17.9843 12.0201 17.8938 12.0285 17.8066 12.0517C17.4006 11.9563 16.9885 12.1843 16.8529 12.5787C16.441 13.6632 16.4551 14.8634 16.892 15.938C17.3371 16.8957 18.1078 17.664 19.0669 18.1054C18.2802 18.6809 17.2273 18.7356 16.3849 18.2455C15.5421 17.755 15.0699 16.8125 15.1811 15.8442C15.23 15.3933 14.9041 14.9879 14.4531 14.9389C14.0021 14.89 13.5968 15.2159 13.5478 15.6669C13.3493 17.477 14.3676 19.2013 16.049 19.9011C17.73 20.6009 19.6712 20.1084 20.8155 18.6919C21.1332 18.7607 21.4542 18.8137 21.7775 18.85C24.0646 19.0285 26.3635 18.708 28.5149 17.9108C28.7802 18.3697 28.8932 18.9004 28.8384 19.4274L26.0493 45.117ZM20.0809 16.3762C20.0647 16.4955 20.0398 16.6134 20.0062 16.7292C19.3061 16.4636 18.731 15.9448 18.3954 15.275C18.1933 14.7879 18.1422 14.2514 18.2484 13.7348C19.4287 14.0409 20.2077 15.1635 20.0809 16.3762ZM29.4028 15.8052C29.3163 15.8438 29.2301 15.8756 29.1434 15.9126L23.4356 7.82912C24.0769 7.44407 24.741 7.0982 25.4237 6.79308C30.3125 4.6353 35.3542 4.87889 36.431 7.32732C36.9239 8.44271 36.5268 9.91574 35.3139 11.4737C34.8357 12.0774 34.2997 12.6328 33.713 13.1315L33.7062 13.1159C33.2975 12.1875 32.5628 11.4405 31.6415 11.0153L28.5609 9.58705C28.1522 9.41237 27.6786 9.59454 27.4924 9.99794C27.3057 10.4017 27.4744 10.8803 27.8729 11.0781L30.9541 12.5008C31.5115 12.7586 31.9559 13.2106 32.2039 13.7725L32.3729 14.1552C31.4363 14.7971 30.4418 15.3499 29.4025 15.8076L29.4028 15.8052Z" fill="#EF7F3C" />
    <path d="M30.3732 36.7514C30.5561 37.1662 31.0412 37.3544 31.456 37.1711L37.4685 34.5189C37.739 34.4018 37.9259 34.1486 37.9585 33.8556C37.9907 33.5625 37.8638 33.2748 37.6256 33.1013C37.3871 32.9277 37.0743 32.895 36.8054 33.0159L30.793 35.6681C30.3781 35.8514 30.1899 36.3361 30.3732 36.7514Z" fill="#EF7F3C" />
    <path d="M30.8586 41.9209C31.041 42.3361 31.5261 42.5247 31.9414 42.3415L39.4568 39.0262C39.8721 38.8433 40.0603 38.3582 39.877 37.9429C39.6942 37.5277 39.2091 37.3395 38.7938 37.5223L31.2784 40.8377C30.8635 41.021 30.6753 41.5057 30.8586 41.9209Z" fill="#EF7F3C" />
    <path d="M32.3856 32.1526C32.5287 32.1682 32.6736 32.1456 32.8058 32.0873L35.8118 30.7612C36.0823 30.6441 36.2692 30.3908 36.3018 30.0979C36.334 29.8052 36.2071 29.5171 35.969 29.3436C35.7308 29.1701 35.4177 29.1373 35.1487 29.2582L32.1427 30.5843C31.8024 30.7346 31.6057 31.0941 31.6626 31.4617C31.7195 31.829 32.0159 32.1125 32.3856 32.1526Z" fill="#EF7F3C" />
</svg>
